# xmcd
#
# Track frame offsets:
#	150
#	51298
#	75860
#	113348
#	135463
#	159850
#	173280
#	190791
#	254866
#	277459
#	306901
#
# Disc length: 4453 seconds
#
# Revision: 1
# Processed by: cddbd v1.5.2PL0 Copyright (c) Steve Scherf et al.
# Submitted via: audiograbber 1.83.01
#
DISCID=8911630b
DTITLE=Grateful Dead - 76-09-23 Cameron Indoor Stadium, Duke University, Durham
DTITLE=NC
DYEAR=1900
DGENRE=
TTITLE0=Mississippi Half-Step
TTITLE1=Minglewood Blues
TTITLE2=Ramble On Rose
TTITLE3=Cassidy
TTITLE4=Brown Eyed Women
TTITLE5=Lazy Lightning
TTITLE6=Supplication
TTITLE7=Crazy Fingers
TTITLE8=El Paso
TTITLE9=It Must Have Been The Roses
TTITLE10=The Music Never Stopped
EXTD=
EXTT0=
EXTT1=
EXTT2=
EXTT3=
EXTT4=
EXTT5=
EXTT6=
EXTT7=
EXTT8=
EXTT9=
EXTT10=
PLAYORDER=
